<svg width="15" height="15" viewBox="0 0 15 15" fill="none" xmlns="http://www.w3.org/2000/svg">
<path d="M13.5215 6.48242C13.5215 10.1834 9.27549 12.6998 7.92721 13.4055C7.67148 13.5394 7.37149 13.5394 7.11576 13.4055C5.76748 12.6998 1.52148 10.1834 1.52148 6.48242C1.52148 3.10742 4.42869 0.857422 7.52148 0.857422C10.7215 0.857422 13.5215 3.10742 13.5215 6.48242Z" fill="white" stroke="#2594FA" stroke-width="1.2"/>
<path d="M5.24909 6.71543L7.34801 8.92481C7.38654 8.96537 7.4058 8.98565 7.42572 8.99799C7.48439 9.03434 7.55858 9.03434 7.61725 8.99799C7.63716 8.98565 7.65643 8.96537 7.69496 8.92481L9.79388 6.71543C10.2216 6.26516 10.2885 5.58173 9.95625 5.05704C9.40283 4.18323 8.11395 4.22657 7.62048 5.13559L7.56826 5.23178C7.54812 5.26889 7.49485 5.26889 7.47471 5.23178L7.42249 5.13559C6.92902 4.22657 5.64014 4.18323 5.08672 5.05704C4.75442 5.58173 4.82133 6.26516 5.24909 6.71543Z" fill="#2594FA" stroke="#2594FA" stroke-width="1.2"/>
</svg>
